<?xml version="1.0" encoding="UTF-8"?>
<svg width="174px" height="180px" viewBox="0 0 174 180" version="1.1" xmlns="http://www.w3.org/2000/svg" xmlns:xlink="http://www.w3.org/1999/xlink">
    <title>3 copy</title>
    <g id="3-copy" stroke="none" stroke-width="1" fill="none" fill-rule="evenodd">
        <rect fill="#FFFFFF" x="0" y="0" width="174" height="180"></rect>
        <path d="M50.2989691,95 C39.606975,94.7989583 31,86.069561 31,75.3298969 C31,65.1965685 38.6625511,56.8529248 48.5095207,55.7770985 C48.2221723,54.1732337 48.0721649,52.5216607 48.0721649,50.8350515 C48.0721649,35.4621771 60.534342,23 75.9072165,23 C87.1929869,23 96.9100233,29.7165488 101.279133,39.3704538 C102.621839,38.8646728 104.077535,38.5876289 105.597938,38.5876289 C112.071647,38.5876289 117.372241,43.6103304 117.815381,49.9713952 C118.914122,49.806749 120.039906,49.7216495 121.185567,49.7216495 C133.688838,49.7216495 143.824742,59.8575535 143.824742,72.3608247 C143.824742,84.7400556 133.88895,94.7986578 121.556982,94.9970149 L50.2989691,95 Z" id="Path" fill="#498B96"></path>
        <path d="M98,98 L114,126 L102,126 L102,157 L94,157 L94,126 L82,126 L98,98 Z" id="Combined-Shape" fill="#498B96"></path>
        <path d="M75,98 L91,126 L79,126 L79,157 L71,157 L71,126 L59,126 L75,98 Z" id="Combined-Shape-Copy" fill="#498B96" transform="translate(75, 127.5) rotate(-180) translate(-75, -127.5)"></path>
    </g>
</svg>